<?xml version="1.0" encoding="UTF-8" standalone="no"?>
<svg
   xmlns:dc="http://purl.org/dc/elements/1.1/"
   xmlns:cc="http://creativecommons.org/ns#"
   xmlns:rdf="http://www.w3.org/1999/02/22-rdf-syntax-ns#"
   xmlns:svg="http://www.w3.org/2000/svg"
   xmlns="http://www.w3.org/2000/svg"
   xmlns:sodipodi="http://sodipodi.sourceforge.net/DTD/sodipodi-0.dtd"
   xmlns:inkscape="http://www.inkscape.org/namespaces/inkscape"
   width="92.98214mm"
   height="92.98214mm"
   viewBox="0 0 92.98214 92.98214"
   version="1.1"
   id="svg324"
   inkscape:version="1.0.1 (c497b03c, 2020-09-10)"
   sodipodi:docname="smiley.svg">
  <defs
     id="defs318" />
  <sodipodi:namedview
     id="base"
     pagecolor="#ffffff"
     bordercolor="#666666"
     borderopacity="1.0"
     inkscape:pageopacity="0.0"
     inkscape:pageshadow="2"
     inkscape:zoom="0.35"
     inkscape:cx="405.71429"
     inkscape:cy="562.85712"
     inkscape:document-units="mm"
     inkscape:current-layer="layer1"
     inkscape:document-rotation="0"
     showgrid="false"
     fit-margin-top="0"
     fit-margin-left="0"
     fit-margin-right="0"
     fit-margin-bottom="0"
     inkscape:window-width="1680"
     inkscape:window-height="1005"
     inkscape:window-x="0"
     inkscape:window-y="23"
     inkscape:window-maximized="0" />
  <metadata
     id="metadata321">
    <rdf:RDF>
      <cc:Work
         rdf:about="">
        <dc:format>image/svg+xml</dc:format>
        <dc:type
           rdf:resource="http://purl.org/dc/dcmitype/StillImage" />
        <dc:title></dc:title>
      </cc:Work>
    </rdf:RDF>
  </metadata>
  <g
     inkscape:label="Layer 1"
     inkscape:groupmode="layer"
     id="layer1"
     transform="translate(3.7797623,0.75594711)">
    <circle
       style="fill:#ffcc00;stroke-width:0.264583"
       id="path326"
       cx="42.711308"
       cy="45.735123"
       r="46.49107" />
    <g
       id="g334"
       transform="translate(-1.1476025e-5)">
      <ellipse
         style="fill:#000000;stroke-width:0.264583"
         id="path328"
         cx="26.836315"
         cy="32.127975"
         rx="5.6696429"
         ry="8.6934528" />
      <ellipse
         style="fill:#000000;stroke-width:0.264583"
         id="ellipse330"
         cx="58.586323"
         cy="32.127975"
         rx="5.6696429"
         ry="8.6934528" />
    </g>
    <path
       id="path338"
       style="fill:#000000;stroke-width:0.264583"
       d="M 18.735142,58.678144 A 26.836309,27.970239 0 0 0 42.711455,74.083395 26.836309,27.970239 0 0 0 66.686219,58.679174 49.514876,44.601188 0 0 1 42.711455,64.256091 49.514876,44.601188 0 0 1 18.735142,58.678144 Z" />
    <path
       id="circle347"
       style="fill:#0000ff;stroke-width:0.999999"
       d="M 175.71484,0 A 175.71428,175.71428 0 0 0 59.496094,43.923828 411.42856,184.28572 0 0 0 175.71484,51.427734 411.42856,184.28572 0 0 0 291.93164,43.923828 175.71428,175.71428 0 0 0 175.71484,0 Z"
       transform="matrix(0.26458333,0,0,0.26458333,-3.7797623,-0.75594711)" />
  </g>
</svg>
